<svg width="169" height="28" viewBox="0 0 169 28" fill="none" xmlns="http://www.w3.org/2000/svg">
<path d="M105.842 2.01683C105.824 2.2434 105.756 2.46319 105.643 2.66042C105.53 2.85765 105.375 3.02741 105.188 3.15755C105.121 3.20198 105.05 3.24136 104.977 3.27534C104.728 3.36213 104.465 3.39678 104.203 3.37713C104.05 3.36601 103.899 3.33819 103.753 3.29412C103.659 3.25837 103.569 3.21258 103.485 3.15755C103.267 3.00939 103.091 2.80636 102.976 2.56883C102.861 2.33131 102.81 2.06764 102.829 1.80431C102.848 1.54098 102.935 1.28724 103.083 1.06859C103.231 0.849931 103.434 0.674045 103.672 0.558584C103.909 0.443126 104.173 0.392158 104.436 0.4108C104.699 0.429442 104.953 0.517036 105.172 0.664788C105.391 0.81254 105.567 1.01525 105.683 1.25257C105.798 1.48989 105.849 1.75346 105.831 2.01683H105.842Z" fill="#272049"/>
<path d="M131.28 2.28453C131.262 2.5111 131.194 2.73089 131.081 2.9281C130.968 3.12535 130.813 3.29511 130.626 3.42525C130.559 3.46968 130.488 3.50906 130.415 3.54305C130.167 3.62983 129.903 3.66448 129.641 3.64483C129.489 3.63371 129.338 3.60589 129.191 3.56182C129.097 3.52607 129.007 3.48028 128.923 3.42525C128.705 3.27709 128.529 3.07407 128.414 2.83653C128.299 2.59901 128.248 2.33534 128.267 2.07201C128.286 1.80868 128.374 1.55494 128.521 1.33629C128.67 1.11763 128.873 0.941745 129.11 0.826284C129.347 0.710826 129.611 0.659858 129.874 0.6785C130.137 0.697143 130.391 0.784737 130.61 0.932488C130.829 1.08024 131.005 1.28295 131.121 1.52027C131.236 1.75759 131.288 2.02116 131.269 2.28453H131.28Z" fill="#272049"/>
<path d="M9.44326 2.01683C9.42532 2.2434 9.35741 2.46319 9.24444 2.66042C9.13149 2.85765 8.97626 3.02741 8.78989 3.15755C8.72239 3.20198 8.6517 3.24136 8.57835 3.27534C8.33015 3.36213 8.06669 3.39678 7.80449 3.37713C7.65197 3.36601 7.5011 3.33819 7.35463 3.29412C7.26072 3.25837 7.17094 3.21258 7.08686 3.15755C6.86836 3.00939 6.69264 2.80636 6.57739 2.56883C6.46214 2.33131 6.41143 2.06764 6.43031 1.80431C6.44918 1.54098 6.53701 1.28724 6.68496 1.06859C6.8329 0.849931 7.03577 0.674045 7.2732 0.558584C7.51064 0.443126 7.77423 0.392158 8.03759 0.4108C8.30094 0.429442 8.55476 0.517036 8.77353 0.664788C8.99233 0.81254 9.16842 1.01525 9.28407 1.25257C9.39974 1.48989 9.45097 1.75346 9.43255 2.01683H9.44326Z" fill="#272049"/>
<path d="M13.6564 6.37491V4.95917H2.23822V7.71152H10.8884V14.6756C10.8884 17.3162 9.17186 18.5328 6.58494 18.5328C4.53862 18.5328 3.03566 17.8044 2.37338 16.1023L0 17.4989C1.1137 20.0194 3.60872 21.2933 6.58761 21.2933C10.4396 21.2933 13.6564 19.1111 13.6564 14.6756V6.37491Z" fill="#272049"/>
<path d="M16.3342 20.9337V0.280121H19.2847V20.9337H16.3342ZM24.414 7.36137C25.9285 5.80741 27.7678 5.03044 29.9314 5.03044C32.2326 5.03044 34.0326 5.94509 35.3308 7.77441V5.29599H38.2814V20.9337H35.3308V18.4552C34.7409 19.3011 33.9737 19.9699 33.0293 20.4616C32.1049 20.9337 31.0724 21.1697 29.9314 21.1697C27.7678 21.1697 25.9187 20.3829 24.3845 18.8093C22.8699 17.216 22.1126 15.3179 22.1126 13.1148C22.1126 10.8528 22.8797 8.93497 24.414 7.36137ZM24.886 13.1148C24.886 14.5901 25.3974 15.8588 26.4203 16.921C27.4628 17.9635 28.7216 18.4848 30.197 18.4848C31.6524 18.4848 32.9015 17.9537 33.9442 16.8915C34.9864 15.8293 35.5078 14.5704 35.5078 13.1148C35.5078 11.6396 34.9864 10.3708 33.9442 9.30867C32.9015 8.24649 31.6524 7.71542 30.197 7.71542C28.7021 7.71542 27.4433 8.24649 26.4203 9.30867C25.3974 10.3512 24.886 11.6199 24.886 13.1148ZM41.6317 0.280121H44.5823V7.80392C45.8411 5.99428 47.6411 5.0698 49.9817 5.03044C50.0012 5.03044 50.0307 5.03044 50.0703 5.03044C52.2342 5.03044 54.0631 5.81723 55.5583 7.39083C57.053 8.94479 57.8007 10.8528 57.8007 13.1148C57.8007 15.3375 57.053 17.2357 55.5583 18.8093C54.0631 20.3829 52.2042 21.1697 49.9817 21.1697C47.6805 21.1697 45.8805 20.2747 44.5823 18.4848V20.9337H41.6317V0.280121ZM45.9689 16.8915C47.0116 17.9537 48.2607 18.4848 49.7161 18.4848C51.1915 18.4848 52.4404 17.9635 53.4633 16.921C54.506 15.8588 55.0271 14.5901 55.0271 13.1148C55.0271 11.6396 54.506 10.3708 53.4633 9.30867C52.4208 8.24649 51.1719 7.71542 49.7161 7.71542C48.2409 7.71542 46.9821 8.24649 45.9394 9.30867C44.9165 10.3708 44.4053 11.6396 44.4053 13.1148C44.4053 14.5704 44.9267 15.8293 45.9689 16.8915ZM59.9742 9.66272C59.9742 8.22681 60.574 7.09582 61.7741 6.26966C62.9936 5.44353 64.5084 5.03044 66.318 5.03044C68.6192 5.03044 70.6455 5.61073 72.3959 6.77125V9.63324C70.1536 8.25635 68.1273 7.56788 66.318 7.56788C65.3738 7.56788 64.5868 7.75476 63.9576 8.12849C63.328 8.50222 63.0131 9.00378 63.0131 9.63324C63.0131 9.94795 63.102 10.2135 63.2788 10.4299C63.4558 10.6462 63.7412 10.843 64.1346 11.0199C64.5475 11.1773 64.9309 11.3052 65.2852 11.4036C65.659 11.5019 66.19 11.6199 66.8787 11.7576C67.2324 11.8363 67.508 11.8953 67.7048 11.9346C69.5537 12.3674 70.891 12.9772 71.7174 13.764C72.5632 14.5311 72.9957 15.4851 73.0155 16.6259C73.0155 18.1405 72.4058 19.2814 71.1864 20.0485C69.9667 20.796 68.5014 21.1697 66.7898 21.1697C64.5279 21.1697 62.3445 20.4518 60.2398 19.0159V15.9178C60.9282 16.5866 61.892 17.1964 63.1315 17.7472C64.39 18.2979 65.6097 18.5733 66.7898 18.5733C67.6753 18.5733 68.4224 18.3963 69.0324 18.0422C69.6619 17.6685 69.9766 17.1865 69.9766 16.5964C69.9766 15.4752 68.5702 14.6491 65.7575 14.118C63.7707 13.7246 62.3051 13.1935 61.361 12.5247C60.4366 11.8363 59.9742 10.8823 59.9742 9.66272ZM85.3547 7.36137C86.8693 5.80741 88.7083 5.03044 90.8719 5.03044C93.1734 5.03044 94.9731 5.94509 96.2716 7.77441V0.280121H99.2219V20.9337H96.2716V18.4848C94.9731 20.2747 93.1734 21.1697 90.8719 21.1697C88.7083 21.1697 86.8596 20.3829 85.3253 18.8093C83.8105 17.216 83.0535 15.3179 83.0535 13.1148C83.0535 10.8528 83.8204 8.93497 85.3547 7.36137ZM87.3609 16.921C88.3838 17.9635 89.6429 18.4848 91.1376 18.4848C92.5935 18.4848 93.8423 17.9537 94.8848 16.8915C95.9272 15.8293 96.4486 14.5704 96.4486 13.1148C96.4486 11.6396 95.9272 10.3708 94.8848 9.30867C93.8619 8.24649 92.613 7.71542 91.1376 7.71542C89.6624 7.71542 88.4033 8.24649 87.3609 9.30867C86.3383 10.3708 85.8268 11.6396 85.8268 13.1148C85.8268 14.6098 86.3383 15.8785 87.3609 16.921ZM105.7 5.03191V20.9337H102.749V5.03191H105.7ZM108.668 12.8493C108.668 10.6069 109.406 8.74809 110.882 7.27282C112.376 5.7779 114.216 5.03044 116.399 5.03044C116.438 5.03044 116.468 5.03044 116.487 5.03044C118.808 5.05012 120.608 5.94509 121.887 7.71542V5.29599H124.837V19.5469C124.837 22.1631 124.08 24.1792 122.566 25.5955C121.071 27.0116 119.261 27.7199 117.136 27.7199C115.346 27.7199 113.724 27.2183 112.268 26.2151C110.812 25.2316 109.859 23.7859 109.406 21.8778H112.357C112.691 22.9204 113.301 23.6875 114.186 24.1792C115.091 24.6907 116.055 24.9464 117.078 24.9464C118.454 24.9464 119.595 24.5136 120.5 23.6482C121.405 22.8023 121.867 21.4746 121.887 19.665V18.1307C120.628 19.842 118.828 20.6977 116.487 20.6977C114.245 20.6977 112.376 19.9502 110.882 18.4552C109.406 16.9603 108.668 15.0917 108.668 12.8493ZM111.442 12.8493C111.442 14.3442 111.953 15.5933 112.976 16.5964C114.019 17.58 115.278 18.0717 116.753 18.0717C118.209 18.0717 119.457 17.5701 120.5 16.5669C121.543 15.5441 122.064 14.3049 122.064 12.8493C122.064 11.4134 121.543 10.1938 120.5 9.19066C119.477 8.18748 118.228 7.68588 116.753 7.68588C115.258 7.68588 113.999 8.18748 112.976 9.19066C111.953 10.1742 111.442 11.3937 111.442 12.8493ZM131.229 5.29599V20.9337H128.278V5.29599H131.229ZM133.873 7.86294V5.29599H136.971V1.37181L139.892 0.516162V5.29599H144.849V7.86294H139.892V15.9473C139.892 17.0489 140.177 17.7373 140.747 18.0127C141.338 18.2684 141.898 18.3963 142.429 18.3963C143.118 18.3963 143.944 18.2586 144.908 17.9832V20.8452C143.885 21.1206 142.951 21.2582 142.105 21.2582C140.964 21.2582 139.823 20.9238 138.682 20.2551C137.541 19.5863 136.971 18.1602 136.971 15.9769V7.86294H133.873ZM148.802 7.36137C150.317 5.80741 152.156 5.03044 154.319 5.03044C156.621 5.03044 158.421 5.94509 159.719 7.77441V5.29599H162.67V20.9337H159.719V18.4552C159.129 19.3011 158.362 19.9699 157.418 20.4616C156.493 20.9337 155.461 21.1697 154.319 21.1697C152.156 21.1697 150.307 20.3829 148.773 18.8093C147.258 17.216 146.501 15.3179 146.501 13.1148C146.501 10.8528 147.268 8.93497 148.802 7.36137ZM149.274 13.1148C149.274 14.5901 149.786 15.8588 150.808 16.921C151.851 17.9635 153.11 18.4848 154.585 18.4848C156.041 18.4848 157.29 17.9537 158.332 16.8915C159.375 15.8293 159.896 14.5704 159.896 13.1148C159.896 11.6396 159.375 10.3708 158.332 9.30867C157.29 8.24649 156.041 7.71542 154.585 7.71542C153.09 7.71542 151.831 8.24649 150.808 9.30867C149.786 10.3512 149.274 11.6199 149.274 13.1148ZM166.049 20.9337V0.280121H169V20.9337H166.049Z" fill="#272049"/>
</svg>
