<svg width="32" height="32" viewBox="0 0 32 32" fill="none" xmlns="http://www.w3.org/2000/svg">
<g clip-path="url(#clip0_709_1686)">
<path d="M22 4.00009V6.00009H26.58L19.99 12.5861L21.4 13.9961L27.98 7.41009V11.9961H29.98V3.99609H21.98L22 4.00009Z" fill="#9184CF"/>
<path d="M28 16.0002V20.0002C28 21.1002 27.1 21.9902 26 22.0002C25.99 22.0002 25.99 22.0002 25.99 22.0002H19.99L15.99 29.0002L17.72 30.0002L21.14 24.0002H25.97C28.17 24.0002 29.96 22.2102 29.97 20.0002C29.97 19.9902 29.97 19.9902 29.97 19.9902V15.9902L28 16.0002Z" fill="#9184CF"/>
<path d="M4.00001 20V8.00004C3.99001 6.89004 4.89001 6.00004 5.99001 6.00004C5.99001 5.99004 5.99001 5.99004 5.99001 6.00004H17.99V4.00004H5.99001C3.78001 3.99004 1.99001 5.78004 1.99001 7.99004C1.98001 7.99004 1.98001 7.99004 1.99001 7.99004V19.99C1.98001 22.19 3.77001 23.979 5.98001 23.989H14.98V21.989H5.98001C4.87001 21.989 3.98001 21.089 3.98001 19.989C3.97001 19.979 3.97001 19.979 3.98001 19.979L4.00001 20Z" fill="#9184CF"/>
</g>
<defs>
<clipPath id="clip0_709_1686">
<rect width="32" height="32" fill="white"/>
</clipPath>
</defs>
</svg>
