<svg width="32" height="32" viewBox="0 0 32 32" fill="none" xmlns="http://www.w3.org/2000/svg">
<g clip-path="url(#clip0_709_1534)">
<path d="M27 21.9999C26.24 21.9999 25.509 22.2899 24.959 22.8099L20.949 20.3999C20.999 20.1299 20.999 19.8489 20.949 19.5789L24.949 17.1689L24.948 17.1679C26.158 18.2879 28.048 18.2079 29.168 16.9979C30.288 15.7779 30.208 13.8879 28.998 12.7679C27.778 11.6379 25.888 11.7179 24.768 12.9279C24.248 13.4779 23.968 14.2079 23.968 14.9579C23.968 15.0879 23.978 15.2279 24.008 15.3579L19.998 17.7579C18.788 16.6179 16.888 16.6779 15.748 17.8879C14.608 19.0879 14.668 20.9879 15.878 22.1279C17.028 23.2079 18.818 23.2079 19.978 22.1279L23.978 24.5279C23.948 24.6579 23.938 24.7979 23.928 24.9279C23.928 26.5779 25.268 27.9279 26.928 27.9279C28.578 27.9279 29.928 26.5779 29.928 24.9279C29.928 23.2679 28.578 21.9279 26.928 21.9279L27 21.9999ZM27 13.9999C27.55 13.9999 28 14.4399 28 14.9999C28 15.5499 27.55 15.9999 27 15.9999C26.44 15.9999 26 15.5499 26 14.9999C26 14.4399 26.44 13.9999 27 13.9999ZM18 20.9999C17.44 20.9999 17 20.5499 17 19.9999C17 19.4399 17.44 18.9999 18 18.9999C18.55 18.9999 19 19.4399 19 19.9999C18.99 20.5499 18.55 20.9899 18 20.9999ZM27 25.9999C26.44 25.9999 26 25.5499 26 24.9999C26 24.4399 26.44 23.9999 27 23.9999C27.55 23.9999 28 24.4399 28 24.9999C27.99 25.5499 27.55 25.9899 27 25.9999Z" fill="#C0BADB"/>
<path d="M7 7C6.73478 7 6.48043 7.10536 6.29289 7.29289C6.10536 7.48043 6 7.73478 6 8C6 8.26522 6.10536 8.51957 6.29289 8.70711C6.48043 8.89464 6.73478 9 7 9C7.26522 9 7.51957 8.89464 7.70711 8.70711C7.89464 8.51957 8 8.26522 8 8C8 7.73478 7.89464 7.48043 7.70711 7.29289C7.51957 7.10536 7.26522 7 7 7Z" fill="#C0BADB"/>
<path d="M7 15C6.73478 15 6.48043 15.1054 6.29289 15.2929C6.10536 15.4804 6 15.7348 6 16C6 16.2652 6.10536 16.5196 6.29289 16.7071C6.48043 16.8946 6.73478 17 7 17C7.26522 17 7.51957 16.8946 7.70711 16.7071C7.89464 16.5196 8 16.2652 8 16C8 15.7348 7.89464 15.4804 7.70711 15.2929C7.51957 15.1054 7.26522 15 7 15Z" fill="#C0BADB"/>
<path d="M7 23C6.73478 23 6.48043 23.1054 6.29289 23.2929C6.10536 23.4804 6 23.7348 6 24C6 24.2652 6.10536 24.5196 6.29289 24.7071C6.48043 24.8946 6.73478 25 7 25C7.26522 25 7.51957 24.8946 7.70711 24.7071C7.89464 24.5196 8 24.2652 8 24C8 23.7348 7.89464 23.4804 7.70711 23.2929C7.51957 23.1054 7.26522 23 7 23Z" fill="#C0BADB"/>
<path d="M22 13V5C21.99 3.89 21.1 3 20 3H4C2.89 3 2 3.89 2 5V27C2 28.1 2.89 28.99 4 29H20V27H4V21H12V19H4V13H22ZM4 5H20V11H4V5Z" fill="#C0BADB"/>
</g>
<defs>
<clipPath id="clip0_709_1534">
<rect width="32" height="32" fill="white"/>
</clipPath>
</defs>
</svg>
