<svg width="24" height="24" viewBox="0 0 24 24" fill="none" xmlns="http://www.w3.org/2000/svg">
<path d="M20.99 6.89993C20.95 6.54993 20.74 6.24993 20.44 6.09993L12.44 2.09993C12.15 1.94993 11.82 1.94993 11.54 2.09893L3.54002 6.09893C3.23002 6.24893 3.02002 6.54893 2.99002 6.88893C2.97002 6.98893 2.02002 17.6489 11.57 21.8989C11.69 21.9489 11.83 21.9789 11.97 21.9789C12.1 21.9789 12.24 21.9489 12.37 21.8889C21.92 17.6419 20.97 6.97893 20.95 6.86893L20.99 6.89993ZM11.99 19.8899C5.22002 16.6099 4.90002 9.62993 4.95002 7.61993L11.99 4.09993L19.019 7.60993C19.049 9.58993 18.689 16.6199 11.99 19.8699V19.8899Z" fill="#C0BADB"/>
<path d="M11 12.5859L8.70003 10.2859L7.28003 11.6959L10.98 15.3959L16.68 9.68587L15.26 8.26587L11 12.5859Z" fill="#C0BADB"/>
</svg>
