<svg width="24" height="24" viewBox="0 0 24 24" fill="none" xmlns="http://www.w3.org/2000/svg">
<path d="M12 4.00001C6.48 4.00001 2 8.48001 2 14C2 15.55 2.35 17.04 3.05 18.445C3.22 18.785 3.566 18.995 3.94 18.995H20.04C20.41 18.995 20.76 18.775 20.93 18.435C21.62 17.035 21.98 15.535 21.98 13.99C21.98 8.47001 17.49 3.99001 11.98 3.99001L12 4.00001ZM19.41 17H4.59C4.19 16.04 4 15.03 4 14C4 9.58001 7.58 6.00001 12 6.00001C16.41 6.00001 20 9.58001 20 14C20 15.03 19.8 16.04 19.41 17Z" fill="#C0BADB"/>
<path d="M10.939 12.939C10.769 13.049 10.609 13.199 10.499 13.379C10.029 14.079 10.229 15.036 10.939 15.499C11.639 15.959 12.596 15.759 13.059 15.059L17.019 9.021C17.019 9.001 17.019 8.991 17.019 8.981C17.009 8.961 16.989 8.961 16.969 8.971L10.929 12.931L10.939 12.939Z" fill="#C0BADB"/>
</svg>
