<svg width="32" height="32" viewBox="0 0 32 32" fill="none" xmlns="http://www.w3.org/2000/svg">
<g clip-path="url(#clip0_709_1542)">
<path d="M9 5C8.73478 5 8.48043 5.10536 8.29289 5.29289C8.10536 5.48043 8 5.73478 8 6C8 6.26522 8.10536 6.51957 8.29289 6.70711C8.48043 6.89464 8.73478 7 9 7C9.26522 7 9.51957 6.89464 9.70711 6.70711C9.89464 6.51957 10 6.26522 10 6C10 5.73478 9.89464 5.48043 9.70711 5.29289C9.51957 5.10536 9.26522 5 9 5Z" fill="#C0BADB"/>
<path d="M26 2H6C4.89 2 4 2.89 4 4V8C4 9.1 4.89 10 6 10H15V14H17V10H26C27.1 10 28 9.1 28 8V4C28 2.89 27.1 2 26 2ZM26 8H6V4H26V8Z" fill="#C0BADB"/>
<path d="M17 28V26H15V28H4V30H28V28H17Z" fill="#C0BADB"/>
<path d="M9 19C8.73478 19 8.48043 19.1054 8.29289 19.2929C8.10536 19.4804 8 19.7348 8 20C8 20.2652 8.10536 20.5196 8.29289 20.7071C8.48043 20.8946 8.73478 21 9 21C9.26522 21 9.51957 20.8946 9.70711 20.7071C9.89464 20.5196 10 20.2652 10 20C10 19.7348 9.89464 19.4804 9.70711 19.2929C9.51957 19.1054 9.26522 19 9 19Z" fill="#C0BADB"/>
<path d="M6 24H26C27.1 24 28 23.1 28 22V18C28 16.89 27.1 16 26 16H6C4.89 16 4 16.89 4 18V22C4 23.1 4.89 24 6 24ZM6 18H26V22H6V18Z" fill="#C0BADB"/>
</g>
<defs>
<clipPath id="clip0_709_1542">
<rect width="32" height="32" fill="white"/>
</clipPath>
</defs>
</svg>
