<svg width="32" height="32" viewBox="0 0 32 32" fill="none" xmlns="http://www.w3.org/2000/svg">
<g clip-path="url(#clip0_709_1527)">
<path d="M28 18H30V28H28V18Z" fill="#C0BADB"/>
<path d="M24 14H26V28H24V14Z" fill="#C0BADB"/>
<path d="M20 22H22V28H20V22Z" fill="#C0BADB"/>
<path d="M22.17 10L23.75 8.73C22.27 6.88 20.19 5.62 17.88 5.17C12.45 4.12 7.2 7.66 6.16 13.09C6.15 13.09 6.15 13.09 6.15 13.09V13.089C2.23 13.789 -0.450003 17.429 0.0299968 21.379C0.569997 25.199 3.88 28.019 7.74 27.969H15.97V25.969H7.66H7.65C4.94 26.009 2.59 24.119 2.04 21.479C1.48 18.489 3.45 15.609 6.44 15.049C6.45 15.039 6.46 15.039 6.47 15.039L7.81 14.789L8.02 13.679C8.63 10.259 11.33 7.599 14.76 7.029H14.759C15.759 6.879 16.779 6.919 17.769 7.159C19.479 7.569 21.009 8.549 22.099 9.939L22.17 10Z" fill="#C0BADB"/>
</g>
<defs>
<clipPath id="clip0_709_1527">
<rect width="32" height="32" fill="white"/>
</clipPath>
</defs>
</svg>
