<svg width="24" height="24" viewBox="0 0 24 24" fill="none" xmlns="http://www.w3.org/2000/svg">
<path d="M20.92 2.384C20.85 2.364 19.36 1.994 17.49 1.994C14.9 1.994 12.827 2.704 11.47 4.055C9.98 5.535 8.84 6.706 8.29 7.265C7.07 7.125 4.213 7.055 2.273 8.995C2.083 9.175 1.973 9.435 1.973 9.695C1.973 9.955 2.073 10.215 2.263 10.395L13.573 21.708C13.753 21.888 14.013 21.998 14.273 21.998C14.539 21.998 14.793 21.888 14.973 21.698C16.923 19.738 16.863 16.884 16.733 15.688L19.913 12.505C23.103 9.305 21.653 3.323 21.583 3.07C21.493 2.71 21.213 2.43 20.853 2.34L20.92 2.384ZM18.55 11.132L15.01 14.667C14.77 14.897 14.67 15.237 14.73 15.567C14.73 15.587 15.13 17.807 14.19 19.507L4.49 9.807C6.19 8.867 8.43 9.297 8.43 9.297C8.76 9.367 9.11 9.257 9.353 9.007C9.353 8.997 10.753 7.547 12.863 5.447C14.081 4.227 16.033 3.967 17.459 3.967C18.399 3.967 19.249 4.077 19.789 4.167C20.029 5.597 20.414 9.197 18.509 11.087L18.55 11.132Z" fill="#C0BADB"/>
<path d="M15.72 6.304C15.1896 6.304 14.6809 6.51471 14.3058 6.88979C13.9307 7.26486 13.72 7.77357 13.72 8.304C13.72 8.83443 13.9307 9.34314 14.3058 9.71821C14.6809 10.0933 15.1896 10.304 15.72 10.304C16.2504 10.304 16.7591 10.0933 17.1342 9.71821C17.5093 9.34314 17.72 8.83443 17.72 8.304C17.72 7.77357 17.5093 7.26486 17.1342 6.88979C16.7591 6.51471 16.2504 6.304 15.72 6.304Z" fill="#C0BADB"/>
<path d="M5 16C3 17 3 21 3 21C3 21 6 21 8 19L5 16Z" fill="#C0BADB"/>
</svg>
