<svg width="32" height="32" viewBox="0 0 32 32" fill="none" xmlns="http://www.w3.org/2000/svg">
<g clip-path="url(#clip0_709_1550)">
<path d="M28 20H26V22H28V28H4V22H14V20H4C2.89 20 2 20.89 2 22V28C2 29.1 2.89 29.99 4 30H28C29.1 29.99 29.99 29.1 30 28V22C29.99 20.89 29.1 20 28 20Z" fill="#C0BADB"/>
<path d="M7 24C6.73478 24 6.48043 24.1054 6.29289 24.2929C6.10536 24.4804 6 24.7348 6 25C6 25.2652 6.10536 25.5196 6.29289 25.7071C6.48043 25.8946 6.73478 26 7 26C7.26522 26 7.51957 25.8946 7.70711 25.7071C7.89464 25.5196 8 25.2652 8 25C8 24.7348 7.89464 24.4804 7.70711 24.2929C7.51957 24.1054 7.26522 24 7 24Z" fill="#C0BADB"/>
<path d="M30 8H22V14H16V22H24V16H30V8ZM22 20H18V16H22V20ZM28 14H24V10H28V14Z" fill="#C0BADB"/>
<path d="M18 10H10V2H18V10ZM12 8H16V4H12V8Z" fill="#C0BADB"/>
</g>
<defs>
<clipPath id="clip0_709_1550">
<rect width="32" height="32" fill="white"/>
</clipPath>
</defs>
</svg>
