<svg width="32" height="32" viewBox="0 0 32 32" fill="none" xmlns="http://www.w3.org/2000/svg">
<g clip-path="url(#clip0_709_1648)">
<path d="M17 13V6H8V22H24V13H17ZM10 8H15V13H10V8ZM10 15H15V20H10V15ZM22 20H17V15H22V20Z" fill="#9184CF"/>
<path d="M28 11H19V2H28V11ZM21 9H26V4H21V9Z" fill="#9184CF"/>
<path d="M28 20H26V22H28V28H4V22H6V20H4C2.89 20 2 20.89 2 22V28C2 29.1 2.89 29.989 4 29.999H28C29.1 29.989 29.989 29.099 29.999 27.999V21.999C29.989 20.889 29.099 19.999 27.999 19.999L28 20Z" fill="#9184CF"/>
<path d="M7 24C6.73478 24 6.48043 24.1054 6.29289 24.2929C6.10536 24.4804 6 24.7348 6 25C6 25.2652 6.10536 25.5196 6.29289 25.7071C6.48043 25.8946 6.73478 26 7 26C7.26522 26 7.51957 25.8946 7.70711 25.7071C7.89464 25.5196 8 25.2652 8 25C8 24.7348 7.89464 24.4804 7.70711 24.2929C7.51957 24.1054 7.26522 24 7 24Z" fill="#9184CF"/>
</g>
<defs>
<clipPath id="clip0_709_1648">
<rect width="32" height="32" fill="white"/>
</clipPath>
</defs>
</svg>
