<svg width="32" height="32" viewBox="0 0 32 32" fill="none" xmlns="http://www.w3.org/2000/svg">
<g clip-path="url(#clip0_709_1678)">
<path d="M11.61 29.9201C11.18 29.7401 10.94 29.3001 11.01 28.8501L12.83 17.0001H7.99999C7.43999 17.0101 6.97999 16.5701 6.96999 16.0201C6.95999 15.9301 6.96999 15.8401 6.98999 15.7601L9.98999 2.76005C10.09 2.29005 10.51 1.96905 10.99 1.98905H20.99C21.29 1.97905 21.57 2.11805 21.77 2.35805C21.96 2.58805 22.03 2.90705 21.97 3.20705L20.24 10.9871H24.99C25.37 10.9771 25.72 11.1971 25.89 11.5471C26.03 11.8671 25.99 12.2571 25.78 12.5471L12.78 29.5471C12.6 29.8071 12.3 29.9671 11.99 29.9871C11.85 29.9771 11.72 29.9571 11.6 29.9071L11.61 29.9201ZM17.75 13.0001L19.75 4.00005H11.8L9.25999 15.0001H15.17L13.58 25.2801L23 13.0001H17.75Z" fill="#9184CF"/>
</g>
<defs>
<clipPath id="clip0_709_1678">
<rect width="32" height="32" fill="white"/>
</clipPath>
</defs>
</svg>
