<svg width="32" height="32" viewBox="0 0 32 32" fill="none" xmlns="http://www.w3.org/2000/svg">
<g clip-path="url(#clip0_709_1672)">
<path d="M25 30L22.9 29C21.2 28.2 20 26.4 20 24.5V18H30V24.5C30 26.4 28.9 28.2 27.1 29L25 30ZM22 20V24.5C22 25.7 22.7 26.7 23.7 27.2L25 27.8L26.3 27.2C27.3 26.7 28 25.6 28 24.5V20H22Z" fill="#9184CF"/>
<path d="M22 8C21.4696 8 20.9609 8.21071 20.5858 8.58579C20.2107 8.96086 20 9.46957 20 10C20 10.5304 20.2107 11.0391 20.5858 11.4142C20.9609 11.7893 21.4696 12 22 12C22.5304 12 23.0391 11.7893 23.4142 11.4142C23.7893 11.0391 24 10.5304 24 10C24 9.46957 23.7893 8.96086 23.4142 8.58579C23.0391 8.21071 22.5304 8 22 8Z" fill="#9184CF"/>
<path d="M21 2C16 2 12 6 12 11C12 11.9 12.1 12.8 12.4 13.6L2 24V30H8L18 20L16.6 18.6L13.8 21.4L12.4 20L11 21.4L12.4 22.8L10.8 24.4L9.4 23L8 24.4L9.4 25.8L7.2 28H4V24.8L13.8 15L14.6 14.2L14.3 13C14.1 12.3 14 11.7 14 11C14 7.1 17.1 4 21 4C24.9 4 28 7.1 28 11C28 12.5 27.5 13.9 26.7 15H29C29.6 13.8 29.9 12.4 29.9 11C30 6 26 2 21 2Z" fill="#9184CF"/>
</g>
<defs>
<clipPath id="clip0_709_1672">
<rect width="32" height="32" fill="white"/>
</clipPath>
</defs>
</svg>
