<svg width="32" height="32" viewBox="0 0 32 32" fill="none" xmlns="http://www.w3.org/2000/svg">
<g clip-path="url(#clip0_709_1658)">
<path d="M24 30L21.9 29C20.2 28.2 19 26.4 19 24.5V18H29V24.5C29 26.4 27.9 28.2 26.1 29L24 30ZM21 20V24.5C21 25.7 21.7 26.7 22.7 27.2L24 27.8L25.3 27.2C26.3 26.7 27 25.6 27 24.5V20H21Z" fill="#9184CF"/>
<path d="M10 22C9.73478 22 9.48043 22.1054 9.29289 22.2929C9.10536 22.4804 9 22.7348 9 23C9 23.2652 9.10536 23.5196 9.29289 23.7071C9.48043 23.8946 9.73478 24 10 24C10.2652 24 10.5196 23.8946 10.7071 23.7071C10.8946 23.5196 11 23.2652 11 23C11 22.7348 10.8946 22.4804 10.7071 22.2929C10.5196 22.1054 10.2652 22 10 22Z" fill="#9184CF"/>
<path d="M10 14C9.73478 14 9.48043 14.1054 9.29289 14.2929C9.10536 14.4804 9 14.7348 9 15C9 15.2652 9.10536 15.5196 9.29289 15.7071C9.48043 15.8946 9.73478 16 10 16C10.2652 16 10.5196 15.8946 10.7071 15.7071C10.8946 15.5196 11 15.2652 11 15C11 14.7348 10.8946 14.4804 10.7071 14.2929C10.5196 14.1054 10.2652 14 10 14Z" fill="#9184CF"/>
<path d="M10 6C9.73478 6 9.48043 6.10536 9.29289 6.29289C9.10536 6.48043 9 6.73478 9 7C9 7.26522 9.10536 7.51957 9.29289 7.70711C9.48043 7.89464 9.73478 8 10 8C10.2652 8 10.5196 7.89464 10.7071 7.70711C10.8946 7.51957 11 7.26522 11 7C11 6.73478 10.8946 6.48043 10.7071 6.29289C10.5196 6.10536 10.2652 6 10 6Z" fill="#9184CF"/>
<path d="M23 2H7C5.9 2 5 2.9 5 4V26C5 27.1 5.9 28 7 28H16V26H7V20H16V18H7V12H23V15H25V4C25 2.9 24.1 2 23 2ZM7 10V4H23V10H7Z" fill="#9184CF"/>
</g>
<defs>
<clipPath id="clip0_709_1658">
<rect width="32" height="32" fill="white"/>
</clipPath>
</defs>
</svg>
