<svg width="32" height="32" viewBox="0 0 32 32" fill="none" xmlns="http://www.w3.org/2000/svg">
<g clip-path="url(#clip0_709_1655)">
<path d="M25 10H24.94C24.36 5.06001 19.89 1.52001 14.96 2.09001C10.81 2.57001 7.52999 5.84001 7.04999 9.99001H6.98999C4.21999 9.99001 1.98999 12.22 1.98999 14.99C1.98999 17.75 4.21999 19.99 6.98999 19.99H8.98999V10.99C8.98999 7.12001 12.12 3.99001 15.99 3.99001C19.85 3.99001 22.99 7.12001 22.99 10.99V20.99C22.98 22.87 21.66 24.5 19.82 24.9C19.21 22.77 17 21.54 14.87 22.15C12.74 22.75 11.51 24.96 12.12 27.09C12.72 29.21 14.93 30.44 17.06 29.83C18.45 29.43 19.53 28.3 19.85 26.88C22.78 26.44 24.95 23.93 24.97 20.97V19.97C27.73 19.97 29.97 17.73 29.97 14.97C29.97 12.2 27.73 9.97001 24.97 9.97001L25 10ZM3.99999 15C3.99999 13.34 5.33999 12 6.99999 12V18C5.33999 18 3.99999 16.65 3.99999 15ZM16 28C14.89 28 14 27.1 14 26C14 24.89 14.89 24 16 24C17.1 24 18 24.89 18 26C18 27.1 17.1 28 16 28ZM25 18V12C26.65 12 28 13.34 28 15C28 16.65 26.65 18 25 18Z" fill="#9184CF"/>
</g>
<defs>
<clipPath id="clip0_709_1655">
<rect width="32" height="32" fill="white"/>
</clipPath>
</defs>
</svg>
